<svg width="41" height="41" viewBox="0 0 41 41" fill="none" xmlns="http://www.w3.org/2000/svg">
<path d="M20.6708 3.41663C20.3292 3.41663 19.8167 3.58746 19.475 3.92913L16.0583 7.00413L11.7875 6.32079C10.7625 6.14996 9.90832 6.83329 9.73749 7.85829L9.05415 12.1291L5.12499 14.1791C4.27082 14.6916 3.92915 15.7166 4.27082 16.5708L6.32082 20.5L4.44165 24.4291C4.09999 25.2833 4.44165 26.3083 5.12499 26.8208L9.05415 28.8708L9.73749 33.1416C9.90832 34.1666 10.7625 34.6791 11.7875 34.6791L16.0583 33.9958L19.1333 37.0708C19.8167 37.7541 20.8417 37.7541 21.525 37.0708L24.6 33.9958L28.8708 34.6791C29.8958 34.85 30.75 34.1666 30.9208 33.1416L31.6042 28.8708L35.5333 26.8208C36.3875 26.3083 36.7292 25.2833 36.2167 24.4291L34.6792 20.5L36.5583 16.5708C36.9 15.7166 36.5583 14.6916 35.875 14.1791L31.9458 12.1291L31.2625 7.85829C31.0917 6.83329 30.2375 6.32079 29.2125 6.32079L24.9417 7.00413L21.8667 3.92913C21.525 3.58746 21.0125 3.41663 20.6708 3.41663ZM16.9125 11.9583C17.9375 11.9583 18.7917 12.3 19.3042 12.9833C19.9875 13.6666 20.1583 14.35 20.1583 15.375V16.2291C20.1583 17.2541 19.8167 18.1083 19.3042 18.6208C18.7917 19.3041 17.9375 19.6458 16.9125 19.6458C15.8875 19.6458 15.0333 19.3041 14.5208 18.7916C14.0083 18.1083 13.6667 17.2541 13.6667 16.2291V15.375C13.6667 14.35 14.0083 13.6666 14.5208 12.9833C15.0333 12.3 15.8875 11.9583 16.9125 11.9583ZM16.9125 13.6666C16.5708 13.6666 16.2292 14.0083 16.0583 14.1791C15.8875 14.5208 15.7167 14.8625 15.7167 15.375V16.2291C15.7167 16.7416 15.8875 17.0833 16.0583 17.425C16.2292 17.7666 16.5708 17.9375 16.9125 17.9375C17.2542 17.9375 17.5958 17.7666 17.7667 17.425C17.9375 17.0833 18.1083 16.7416 18.1083 16.2291V15.375C18.1083 14.8625 17.9375 14.5208 17.7667 14.1791C17.5958 13.8375 17.2542 13.6666 16.9125 13.6666ZM23.2333 13.6666L24.7708 14.5208L17.7667 27.5041L16.2292 26.65L23.2333 13.6666ZM24.0875 21.3541C25.1125 21.3541 25.9667 21.6958 26.4792 22.3791C26.9917 23.0625 27.3333 23.9166 27.3333 24.7708V25.625C27.3333 26.65 26.9917 27.5041 26.4792 28.0166C25.9667 28.5291 25.1125 29.0416 24.0875 29.0416C23.0625 29.0416 22.2083 28.7 21.6958 28.0166C21.1833 27.3333 20.8417 26.4791 20.8417 25.625V24.7708C20.8417 23.7458 21.1833 23.0625 21.6958 22.3791C22.2083 21.6958 23.0625 21.3541 24.0875 21.3541ZM24.0875 23.0625C23.7458 23.0625 23.4042 23.2333 23.2333 23.575C23.0625 23.9166 22.8917 24.2583 22.8917 24.7708V25.625C22.8917 26.1375 23.0625 26.4791 23.2333 26.8208C23.4042 27.1625 23.7458 27.3333 24.0875 27.3333C24.6 27.3333 24.7708 27.1625 24.9417 26.8208C25.1125 26.4791 25.1125 26.1375 25.1125 25.625V24.7708C25.1125 24.2583 24.9417 23.9166 24.7708 23.575C24.7708 23.2333 24.4292 23.0625 24.0875 23.0625Z" fill="#0088CF"/>
</svg>
