<svg width="40" height="40" viewBox="0 0 40 40" fill="none" xmlns="http://www.w3.org/2000/svg">
<path d="M34.8438 10.1401H27.9988C28.6831 9.04255 28.8069 7.62755 28.1944 6.38443C27.5394 5.0538 26.2106 4.22693 24.7256 4.22693C24.1313 4.22693 23.5575 4.36068 23.0206 4.62505C21.7181 5.26693 20.7044 6.51505 19.9987 7.6488C19.2931 6.51443 18.28 5.2663 16.9769 4.62443C16.4406 4.36068 15.8675 4.22693 15.2725 4.22693C13.7881 4.22693 12.4587 5.0538 11.8038 6.3838C11.1912 7.62755 11.315 9.04193 12 10.1401H5.15625C4.46875 10.1401 3.90625 10.7026 3.90625 11.3901V17.8738C3.90625 18.5613 4.46875 19.1238 5.15625 19.1238H5.4975V24.4769V26.9769V33.3626C5.4975 34.6944 6.57688 35.7732 7.9075 35.7732H32.0919C33.4231 35.7732 34.5025 34.6938 34.5025 33.3626V19.1238H34.8438C35.5312 19.1238 36.0938 18.5613 36.0938 17.8738V11.3901C36.0938 10.7026 35.5312 10.1401 34.8438 10.1401ZM24.1256 6.86755C24.7925 6.53943 25.6294 6.83193 25.9525 7.4888C26.285 8.16443 26.0062 8.98443 25.3319 9.3163C24.8144 9.57068 24.1431 9.70005 23.335 9.70005C22.9812 9.70005 22.6419 9.67005 22.3156 9.63193C22.2563 9.4313 22.1756 9.2413 22.0694 9.0663C22.6075 8.1788 23.3244 7.26255 24.1256 6.86755ZM14.0475 7.48818C14.2787 7.0188 14.7481 6.72693 15.2731 6.72693C15.4819 6.72693 15.6844 6.77443 15.8731 6.86755C16.675 7.26255 17.3912 8.17943 17.93 9.06568C17.8237 9.2413 17.7431 9.43068 17.6838 9.63193C17.3575 9.67068 17.0187 9.70005 16.665 9.70005C15.8575 9.70005 15.185 9.57068 14.6687 9.31693C13.9937 8.9838 13.715 8.1638 14.0475 7.48818ZM18.8025 32.6482H8.6225V26.9763H18.8025V32.6482ZM8.6225 24.4763V19.1232H18.8025V24.4763H8.6225ZM31.3775 32.6482H21.1975V26.9763H31.3775V32.6482ZM31.3775 24.4763H21.1975V19.1232H31.3775V24.4763Z" fill="#0088CF"/>
</svg>
