<svg width="18" height="27" viewBox="0 0 18 27" fill="none" xmlns="http://www.w3.org/2000/svg">
<path d="M9 9.00781C6.5 9.00781 4.50781 11.0391 4.50781 13.5C4.50781 16 6.5 17.9922 9 17.9922C11.4609 17.9922 13.4922 16 13.4922 13.5C13.4922 11.0391 11.4609 9.00781 9 9.00781ZM9 16.4297C7.39844 16.4297 6.07031 15.1406 6.07031 13.5C6.07031 11.8984 7.35938 10.6094 9 10.6094C10.6016 10.6094 11.8906 11.8984 11.8906 13.5C11.8906 15.1406 10.6016 16.4297 9 16.4297ZM14.7031 8.85156C14.7031 8.26562 14.2344 7.79688 13.6484 7.79688C13.0625 7.79688 12.5938 8.26562 12.5938 8.85156C12.5938 9.4375 13.0625 9.90625 13.6484 9.90625C14.2344 9.90625 14.7031 9.4375 14.7031 8.85156ZM17.6719 9.90625C17.5938 8.5 17.2812 7.25 16.2656 6.23438C15.25 5.21875 14 4.90625 12.5938 4.82812C11.1484 4.75 6.8125 4.75 5.36719 4.82812C3.96094 4.90625 2.75 5.21875 1.69531 6.23438C0.679688 7.25 0.367188 8.5 0.289062 9.90625C0.210938 11.3516 0.210938 15.6875 0.289062 17.1328C0.367188 18.5391 0.679688 19.75 1.69531 20.8047C2.75 21.8203 3.96094 22.1328 5.36719 22.2109C6.8125 22.2891 11.1484 22.2891 12.5938 22.2109C14 22.1328 15.25 21.8203 16.2656 20.8047C17.2812 19.75 17.5938 18.5391 17.6719 17.1328C17.75 15.6875 17.75 11.3516 17.6719 9.90625ZM15.7969 18.6562C15.5234 19.4375 14.8984 20.0234 14.1562 20.3359C12.9844 20.8047 10.25 20.6875 9 20.6875C7.71094 20.6875 4.97656 20.8047 3.84375 20.3359C3.0625 20.0234 2.47656 19.4375 2.16406 18.6562C1.69531 17.5234 1.8125 14.7891 1.8125 13.5C1.8125 12.25 1.69531 9.51562 2.16406 8.34375C2.47656 7.60156 3.0625 7.01562 3.84375 6.70312C4.97656 6.23438 7.71094 6.35156 9 6.35156C10.25 6.35156 12.9844 6.23438 14.1562 6.70312C14.8984 6.97656 15.4844 7.60156 15.7969 8.34375C16.2656 9.51562 16.1484 12.25 16.1484 13.5C16.1484 14.7891 16.2656 17.5234 15.7969 18.6562Z" fill="#242321"/>
</svg>
