<svg width="31" height="31" viewBox="0 0 31 31" fill="none" xmlns="http://www.w3.org/2000/svg">
<path d="M24.2036 21.1856C24.4251 21.5605 24.5367 21.9976 24.5367 22.4986C24.5367 23.2672 24.3077 23.9066 23.85 24.4194C23.3916 24.9322 22.7318 25.2349 21.8668 25.3256V26.6405H20.7656V25.3312C19.326 25.1834 18.4348 24.3452 18.0904 22.8202L19.7929 22.376C19.9501 23.3353 20.4725 23.8156 21.3596 23.8156C21.774 23.8156 22.0805 23.7136 22.2755 23.507C22.4706 23.3012 22.569 23.0549 22.569 22.7636C22.569 22.4624 22.4706 22.2337 22.2755 22.0805C22.0805 21.9254 21.6455 21.7289 20.9719 21.4904C20.3666 21.2805 19.8934 21.0738 19.5526 20.866C19.2123 20.6615 18.936 20.3758 18.7242 20.0067C18.5101 19.636 18.4043 19.2046 18.4043 18.7144C18.4043 18.0709 18.5954 17.4904 18.9738 16.9754C19.3542 16.461 19.95 16.147 20.7656 16.0317V15.0157H21.8667V16.0317C23.0967 16.1793 23.8952 16.8756 24.2587 18.1204L22.7389 18.7427C22.4439 17.8895 21.9877 17.462 21.3672 17.462C21.0568 17.462 20.8072 17.5565 20.6197 17.7477C20.4307 17.9388 20.3362 18.1696 20.3362 18.4421C20.3362 18.7185 20.4268 18.9303 20.6084 19.0797C20.7904 19.2273 21.1779 19.411 21.774 19.6283C22.427 19.8668 22.9417 20.0937 23.3123 20.3058C23.6851 20.518 23.9802 20.8129 24.2036 21.1856ZM31 20.8278C31 26.1789 26.6635 30.5156 21.3127 30.5156C15.9616 30.5156 11.6251 26.1789 11.6251 20.8278C11.6251 15.4771 15.9616 11.1404 21.3127 11.1404C26.6635 11.1404 31 15.4771 31 20.8278ZM29.0627 20.8278C29.0627 16.5537 25.5869 13.078 21.3127 13.078C17.0387 13.078 13.5626 16.5537 13.5626 20.8278C13.5626 25.1022 17.0386 28.5781 21.3127 28.5781C25.5868 28.5781 29.0627 25.1022 29.0627 20.8278ZM15.5 3.39047H27.1251C27.6606 3.39047 28.0936 3.06489 28.0936 2.66379V1.21062C28.0936 0.80958 27.6606 0.484253 27.1251 0.484253H15.5C14.9645 0.484253 14.5312 0.80958 14.5312 1.21062V2.66379C14.5313 3.06489 14.9645 3.39047 15.5 3.39047ZM15.5 7.26545H27.1251C27.6606 7.26545 28.0936 6.93999 28.0936 6.53889V5.08578C28.0936 4.68462 27.6606 4.3591 27.1251 4.3591H15.5C14.9645 4.3591 14.5312 4.68456 14.5312 5.08578V6.53896C14.5313 6.93999 14.9645 7.26545 15.5 7.26545ZM0.968632 26.6405H12.3931C11.8142 25.755 11.3658 24.7766 11.0688 23.7342H0.968632C0.433236 23.7341 0 24.0594 0 24.4611V25.9138C0 26.3149 0.433236 26.6405 0.968632 26.6405ZM12.5937 27.6093H0.968632C0.433236 27.6093 0 27.9346 0 28.3357V29.789C0 30.19 0.433236 30.5156 0.968632 30.5156H12.5937C13.1292 30.5156 13.5626 30.19 13.5626 29.789V28.3357C13.5626 27.9346 13.1293 27.6093 12.5937 27.6093ZM0.968632 22.7657H10.8418C10.7245 22.1356 10.6565 21.4904 10.6565 20.8278C10.6565 20.5007 10.6753 20.179 10.7056 19.8593H0.968632C0.433236 19.8593 0 20.1847 0 20.586V22.0387C0 22.4404 0.433236 22.7657 0.968632 22.7657ZM15.5 11.1404H16.9C18.2454 10.5236 19.7362 10.1717 21.3127 10.1717C22.8864 10.1717 24.3797 10.5236 25.7249 11.1404H27.1251C27.6606 11.1404 28.0936 10.815 28.0936 10.4139V8.96076C28.0936 8.55973 27.6606 8.23408 27.1251 8.23408H15.5C14.9645 8.23408 14.5312 8.55973 14.5312 8.96076V10.4139C14.5313 10.815 14.9645 11.1404 15.5 11.1404ZM0.968632 11.1404H12.5937C13.1292 11.1404 13.5626 10.815 13.5626 10.4139V8.96076C13.5626 8.55973 13.1292 8.23408 12.5937 8.23408H0.968632C0.433236 8.23408 0 8.55973 0 8.96076V10.4139C0 10.815 0.433236 11.1404 0.968632 11.1404ZM0.968632 18.8906H10.8418C11.0309 17.8612 11.3697 16.8868 11.8334 15.9842H0.968632C0.433236 15.9842 0 16.3095 0 16.7106V18.1642C0 18.5652 0.433236 18.8906 0.968632 18.8906ZM0.968632 15.0155H12.3931C12.7376 14.4858 13.1311 13.9938 13.5626 13.5358V12.8357C13.5626 12.4347 13.1294 12.1094 12.594 12.1094H0.968632C0.433236 12.1094 0 12.4346 0 12.8357V14.2889C0 14.6899 0.433236 15.0155 0.968632 15.0155Z" fill="#0088CF"/>
</svg>
