<svg width="159" height="159" viewBox="0 0 159 159" fill="none" xmlns="http://www.w3.org/2000/svg">
<g clip-path="url(#clip0_0_77)">
<path d="M86.2587 89.1607C88.7243 88.6665 91.066 87.6836 93.1456 86.2698C95.2251 84.856 97.0005 83.04 98.3668 80.9289L92.0866 78.6389C90.4094 82.5389 88.428 86.1799 86.2587 89.1607Z" fill="#F5F5F9"/>
<path d="M76.2703 87.9517C78.0618 86.6653 81.3066 82.6281 84.3009 75.8003L77.9443 73.4824C75.8408 80.6351 75.7255 85.8134 76.2703 87.9517Z" fill="#F5F5F9"/>
<path d="M63.8803 68.354C63.5671 70.8486 63.7566 73.3807 64.4377 75.8009C65.1187 78.2211 66.2776 80.4804 67.8458 82.4456C68.1044 78.7688 68.9316 74.7069 70.1582 70.6431L63.8803 68.354Z" fill="#F5F5F9"/>
<path d="M97.2332 59.064C96.9746 62.7414 96.1472 66.8032 94.9203 70.868L101.2 73.158C101.514 70.6629 101.324 68.1303 100.643 65.7096C99.9613 63.289 98.802 61.0293 97.2332 59.064Z" fill="#F5F5F9"/>
<path d="M80.7779 65.7108L87.1345 68.0287C89.2372 60.8781 89.3527 55.6999 88.8105 53.5602C87.0172 54.8459 83.7722 58.883 80.7779 65.7108Z" fill="#F5F5F9"/>
<path d="M66.7142 60.583L72.9921 62.8721C74.6692 58.9728 76.651 55.3312 78.8198 52.3509C76.3546 52.8455 74.0134 53.8287 71.9343 55.2425C69.8552 56.6563 68.0803 58.4722 66.7142 60.583Z" fill="#F5F5F9"/>
<path d="M128.102 38.9391L59.2665 13.8392C58.7562 13.6531 58.2143 13.5693 57.6716 13.5927C57.129 13.616 56.5962 13.746 56.1038 13.9753C55.6114 14.2045 55.169 14.5286 54.8018 14.9288C54.4347 15.3291 54.15 15.7977 53.9639 16.308L19.3258 111.301C19.1397 111.812 19.0559 112.354 19.0792 112.896C19.1026 113.439 19.2326 113.972 19.4618 114.464C19.6911 114.956 20.0151 115.399 20.4154 115.766C20.8156 116.133 21.2843 116.418 21.7946 116.604L90.6297 141.704C94.0173 142.935 97.7551 142.772 101.023 141.251C104.29 139.73 106.821 136.974 108.059 133.589L136.217 56.3687C137.448 52.9811 137.285 49.2433 135.764 45.9756C134.242 42.7079 131.487 40.1773 128.102 38.9391ZM84.2248 119.8L49.6818 107.205C48.6513 106.829 47.8122 106.059 47.3492 105.065C46.8862 104.07 46.8372 102.933 47.213 101.902C47.5888 100.872 48.3585 100.033 49.353 99.5695C50.3474 99.1066 51.485 99.0576 52.5155 99.4333L87.0585 112.029C88.0891 112.405 88.9281 113.175 89.3911 114.169C89.8541 115.163 89.9031 116.301 89.5273 117.332C89.1516 118.362 88.3818 119.201 87.3874 119.664C86.393 120.127 85.2554 120.176 84.2248 119.8ZM73.2512 96.231C68.2127 94.3938 63.8321 91.1037 60.6635 86.7769C57.4948 82.4501 55.6804 77.2808 55.4497 71.9227C55.2189 66.5647 56.5821 61.2586 59.367 56.6753C62.1519 52.0921 66.2333 48.4376 71.0952 46.1739C75.9571 43.9103 81.381 43.1392 86.6811 43.9582C91.9812 44.7771 96.9194 47.1494 100.871 50.7749C104.823 54.4004 107.611 59.1164 108.883 64.3264C110.154 69.5365 109.853 75.0066 108.015 80.0451C105.545 86.7966 100.498 92.2925 93.9803 95.3269C87.4629 98.3613 80.008 98.6865 73.2512 96.231Z" fill="#F5F5F9"/>
</g>
<defs>
<clipPath id="clip0_0_77">
<rect width="123.849" height="123.849" fill="white" transform="translate(42.4275) rotate(20.0338)"/>
</clipPath>
</defs>
</svg>
