<svg width="28" height="28" viewBox="0 0 28 28" fill="none" xmlns="http://www.w3.org/2000/svg">
<path d="M13.9994 1.74968C11.4476 1.75271 9.00121 2.76774 7.19683 4.57212C5.39245 6.37651 4.37742 8.8229 4.37439 11.3747C4.37439 19.6103 13.1244 25.831 13.4969 26.0916C13.6443 26.1945 13.8197 26.2497 13.9994 26.2497C14.1791 26.2497 14.3545 26.1945 14.5018 26.0916C14.8744 25.831 23.6244 19.6103 23.6244 11.3747C23.6214 8.8229 22.6063 6.37651 20.8019 4.57212C18.9976 2.76774 16.5512 1.75271 13.9994 1.74968ZM14 7.875C14.6923 7.875 15.369 8.08027 15.9445 8.46486C16.5201 8.84944 16.9687 9.39607 17.2336 10.0356C17.4985 10.6751 17.5678 11.3789 17.4328 12.0578C17.2977 12.7367 16.9644 13.3604 16.4749 13.8499C15.9854 14.3394 15.3618 14.6727 14.6828 14.8077C14.0039 14.9428 13.3002 14.8735 12.6606 14.6086C12.0211 14.3437 11.4745 13.8951 11.0899 13.3195C10.7053 12.7439 10.5 12.0672 10.5 11.375C10.5 10.9154 10.5905 10.4602 10.7664 10.0356C10.9423 9.61095 11.2001 9.2251 11.5251 8.9001C11.8501 8.57509 12.236 8.31728 12.6606 8.1414C13.0853 7.96551 13.5404 7.87499 14 7.875Z" fill="#0088CF"/>
</svg>
