<svg width="21" height="21" viewBox="0 0 21 21" fill="none" xmlns="http://www.w3.org/2000/svg">
<path d="M19.4256 15.0608L16.5912 13.0803C16.2206 12.8222 15.7874 12.6857 15.3381 12.6857C14.6236 12.6857 13.953 13.0361 13.5445 13.6222L12.8866 14.5652C11.7839 13.8256 10.5532 12.793 9.38061 11.6204C8.20782 10.4476 7.17516 9.21713 6.43603 8.11441L7.37832 7.45666C8.36761 6.76773 8.61092 5.40097 7.92028 4.40933L5.94021 1.57541C5.52599 0.983028 4.85778 0.629482 4.15282 0.629482C3.90865 0.629482 3.66897 0.672421 3.4406 0.756802C3.18169 0.852718 2.94051 0.969997 2.70382 1.11847L2.31246 1.39404C2.21462 1.4703 2.12362 1.5534 2.03646 1.64056C1.55901 2.11801 1.21999 2.72213 1.02901 3.43649C0.213188 6.49493 2.23428 11.119 6.05813 14.9429C9.26931 18.154 13.1271 20.1491 16.126 20.1493C16.1262 20.1493 16.1264 20.1493 16.1266 20.1493C16.6397 20.1493 17.1234 20.0895 17.5647 19.972C18.2791 19.781 18.8832 19.442 19.36 18.965C19.4474 18.878 19.5307 18.7868 19.6196 18.6717L19.8956 18.2777C20.0308 18.0611 20.1481 17.8197 20.2442 17.5604C20.5779 16.6589 20.2414 15.6309 19.4256 15.0608Z" fill="#0088CF"/>
</svg>
