<svg width="23" height="27" viewBox="0 0 23 27" fill="none" xmlns="http://www.w3.org/2000/svg">
<path d="M21.5391 8.10938C21.6562 7.64062 21.5391 7.25 20.8359 7.25H18.5312C17.9453 7.25 17.6719 7.5625 17.5156 7.91406C17.5156 7.91406 16.3438 10.7656 14.7031 12.6406C14.1562 13.1484 13.9219 13.3438 13.6094 13.3438C13.4922 13.3438 13.2578 13.1484 13.2578 12.6797V8.10938C13.2578 7.52344 13.1016 7.25 12.5938 7.25H9C8.60938 7.25 8.41406 7.52344 8.41406 7.79688C8.41406 8.34375 9.23438 8.46094 9.3125 10.0234V13.4219C9.3125 14.1641 9.19531 14.3203 8.88281 14.3203C8.10156 14.3203 6.22656 11.4297 5.09375 8.14844C4.85938 7.52344 4.625 7.25 4.03906 7.25H1.73438C1.10938 7.25 0.953125 7.5625 0.953125 7.91406C0.953125 8.53906 1.73438 11.5469 4.58594 15.5703C6.5 18.3047 9.19531 19.75 11.6172 19.75C13.0625 19.75 13.2578 19.4375 13.2578 18.8906C13.2578 16.2734 13.1406 16 13.8438 16C14.1953 16 14.7812 16.1953 16.1484 17.5234C17.7109 19.0859 17.9844 19.75 18.8438 19.75H21.1484C21.8125 19.75 22.125 19.4375 21.9297 18.7734C21.5 17.4453 18.5703 14.6328 18.4141 14.4375C18.0625 14.0078 18.1797 13.8125 18.4141 13.4219C18.4141 13.4219 21.2266 9.4375 21.5391 8.10938Z" fill="#242321"/>
</svg>
